<svg height="511pt" viewBox="0 1 511 511.99998" width="511pt" xmlns="http://www.w3.org/2000/svg"><path d="m256.402344 463.289062c-114.351563 0-207.382813-93.03125-207.382813-207.386718 0-114.351563 93.03125-207.382813 207.382813-207.382813 114.351562 0 207.382812 93.03125 207.382812 207.382813 0 114.355468-93.03125 207.386718-207.382812 207.386718zm0-397.882812c-105.039063 0-190.496094 85.457031-190.496094 190.5 0 105.039062 85.457031 190.496094 190.496094 190.496094 105.039062 0 190.496094-85.457032 190.496094-190.496094 0-105.042969-85.457032-190.5-190.496094-190.5zm0 0" fill="#fff180"/><path d="m191.757812 95.628906c0 52.8125-42.816406 95.628906-95.628906 95.628906-52.816406 0-95.628906-42.816406-95.628906-95.628906s42.8125-95.628906 95.628906-95.628906c52.8125 0 95.628906 42.816406 95.628906 95.628906zm0 0" fill="#64e8ff"/><path d="m96.128906 0c-6.390625 0-12.632812.632812-18.671875 1.828125 43.875 8.683594 76.957031 47.375 76.957031 93.800781 0 46.425782-33.082031 85.117188-76.957031 93.800782 6.039063 1.195312 12.28125 1.828124 18.671875 1.828124 52.8125 0 95.628906-42.816406 95.628906-95.628906 0-52.816406-42.816406-95.628906-95.628906-95.628906zm0 0" fill="#0fd9ff"/><path d="m512.308594 95.628906c0 52.8125-42.8125 95.628906-95.628906 95.628906-52.8125 0-95.625-42.816406-95.625-95.628906s42.8125-95.628906 95.625-95.628906c52.816406 0 95.628906 42.816406 95.628906 95.628906zm0 0" fill="#6193ff"/><path d="m512.269531 92.890625c-1.511719-52.792969-45.535156-94.363281-98.328125-92.8515625-4.828125.1406255-9.558594.6367185-14.175781 1.4609375 43.636719 7.8125 77.320313 45.328125 78.640625 91.390625 1.371094 47.964844-32.816406 88.683594-78.675781 96.867187 6.375 1.140626 12.960937 1.652344 19.6875 1.460938 52.792969-1.515625 94.363281-45.535156 92.851562-98.328125zm0 0" fill="#407bff"/><path d="m191.757812 416.371094c0 52.816406-42.816406 95.628906-95.628906 95.628906-52.816406 0-95.628906-42.8125-95.628906-95.628906 0-52.8125 42.8125-95.628906 95.628906-95.628906 52.8125 0 95.628906 42.816406 95.628906 95.628906zm0 0" fill="#ff6969"/><path d="m96.128906 320.742188c-5.96875 0-11.804687.554687-17.46875 1.597656 44.46875 8.210937 78.15625 47.183594 78.15625 94.03125s-33.6875 85.820312-78.15625 94.03125c5.664063 1.046875 11.5 1.597656 17.46875 1.597656 52.8125 0 95.628906-42.8125 95.628906-95.628906 0-52.8125-42.816406-95.628906-95.628906-95.628906zm0 0" fill="#ff4848"/><path d="m512.308594 416.371094c0 52.816406-42.8125 95.628906-95.628906 95.628906-52.8125 0-95.625-42.8125-95.625-95.628906 0-52.8125 42.8125-95.628906 95.625-95.628906 52.816406 0 95.628906 42.816406 95.628906 95.628906zm0 0" fill="#ff95c2"/><path d="m416.683594 320.742188c-6.605469 0-13.050782.671874-19.277344 1.945312 43.574219 8.917969 76.351562 47.472656 76.351562 93.683594 0 46.210937-32.777343 84.765625-76.351562 93.683594 6.226562 1.273437 12.671875 1.945312 19.277344 1.945312 52.8125 0 95.625-42.8125 95.625-95.628906 0-52.8125-42.8125-95.628906-95.625-95.628906zm0 0" fill="#ff758e"/><g fill="#fff"><path d="m144.386719 56.40625c-4.488281 3.167969-9.457031 5.585938-14.714844 7.171875-7.605469-8.75-20.867187-9.671875-29.617187-2.066406-4.65625 4.054687-7.296876 9.949219-7.214844 16.125v4.683593c-16.726563.433594-32.558594-7.535156-42.171875-21.226562 0 0-18.742188 42.171875 23.429687 60.917969-9.652344 6.550781-21.148437 9.835937-32.800781 9.371093 42.171875 23.429688 93.71875 0 93.71875-53.886718-.003906-1.304688-.128906-2.609375-.375-3.890625 4.78125-4.714844 8.15625-10.671875 9.746094-17.199219zm0 0"/><path d="m409.941406 156.238281c-4.664062 0-8.445312-3.78125-8.445312-8.445312v-83.140625c0-16.339844 13.292968-29.632813 29.632812-29.632813h10c4.664063 0 8.445313 3.78125 8.445313 8.445313 0 4.664062-3.78125 8.441406-8.445313 8.441406h-10c-7.027344 0-12.746094 5.71875-12.746094 12.746094v83.140625c0 4.664062-3.78125 8.445312-8.441406 8.445312zm0 0"/><path d="m429.59375 102.441406h-38.332031c-4.664063 0-8.445313-3.78125-8.445313-8.445312 0-4.664063 3.78125-8.445313 8.445313-8.445313h38.332031c4.664062 0 8.445312 3.78125 8.445312 8.445313 0 4.664062-3.78125 8.445312-8.445312 8.445312zm0 0"/><path d="m75.695312 415.324219v-30.375c0-2.238281 2.417969-3.632813 4.355469-2.515625l26.292969 15.1875 26.296875 15.1875c1.933594 1.121094 1.933594 3.914062 0 5.035156l-26.296875 15.1875-26.292969 15.1875c-1.9375 1.117188-4.355469-.28125-4.355469-2.515625zm0 0"/><path d="m450.25 471.8125h-67.136719c-12.058593 0-21.871093-9.8125-21.871093-21.871094v-67.136718c0-12.0625 9.8125-21.871094 21.871093-21.871094h67.136719c12.058594 0 21.871094 9.808594 21.871094 21.871094v67.136718c0 12.058594-9.8125 21.871094-21.871094 21.871094zm-67.136719-93.992188c-2.75 0-4.984375 2.234376-4.984375 4.984376v67.136718c0 2.746094 2.234375 4.984375 4.984375 4.984375h67.136719c2.746094 0 4.984375-2.238281 4.984375-4.984375v-67.136718c0-2.75-2.238281-4.984376-4.984375-4.984376zm0 0"/><path d="m416.683594 440.445312c-13.273438 0-24.074219-10.800781-24.074219-24.074218 0-13.269532 10.800781-24.070313 24.074219-24.070313 13.269531 0 24.070312 10.800781 24.070312 24.070313 0 13.273437-10.800781 24.074218-24.070312 24.074218zm0-31.257812c-3.960938 0-7.1875 3.222656-7.1875 7.183594 0 3.960937 3.226562 7.183594 7.1875 7.183594 3.960937 0 7.183594-3.222657 7.183594-7.183594 0-3.960938-3.222657-7.183594-7.183594-7.183594zm0 0"/></g><path d="m339.113281 236.058594-64.375-61.15625c-1.414062-1.34375-3.75-.339844-3.75 1.609375v34.390625c-60.847656 8.695312-87.316406 47.949218-99.546875 90.902344-1.179687 4.132812 4.0625 7.039062 6.953125 3.855468 22.609375-24.882812 50.402344-36.40625 92.597657-36.40625v35.507813c0 1.929687 2.292968 2.941406 3.71875 1.636719l64.300781-58.945313c3.328125-3.050781 3.375-8.285156.101562-11.394531zm0 0" fill="#9dd46f"/><path d="m339.113281 236.058594-64.375-61.15625c-1.414062-1.339844-3.75-.339844-3.75 1.609375v23.460937l37.992188 36.089844c3.273437 3.109375 3.226562 8.339844-.101563 11.390625l-37.890625 34.730469v22.578125c0 1.933593 2.296875 2.941406 3.722657 1.636719l64.300781-58.945313c3.328125-3.050781 3.375-8.285156.101562-11.394531zm0 0" fill="#71b72c"/></svg>